<svg width="211" height="129" viewBox="0 0 211 129" fill="none" xmlns="http://www.w3.org/2000/svg">
<mask id="mask0_592_590" style="mask-type:alpha" maskUnits="userSpaceOnUse" x="1" y="70" width="147" height="59">
<path d="M1 70.6191H147.814V129H1V70.6191Z" fill="white"/>
</mask>
<g mask="url(#mask0_592_590)">
<path fill-rule="evenodd" clip-rule="evenodd" d="M111.335 72.3955C111.335 72.3955 111.344 97.5091 111.335 105.423C111.582 118.662 115.649 122.2 126.194 122.394C139.891 122.2 140.22 113.88 140.419 105.845C140.625 97.485 140.419 72.3955 140.419 72.3955H147.813C147.813 72.3955 147.813 100.071 147.813 108.38C147.39 118.169 143.306 129.013 126.335 129.013C106.758 129.013 104.786 116.267 104.152 109.437C104.082 100.704 104.152 72.3955 104.152 72.3955H111.335Z" fill="white"/>
</g>
<path fill-rule="evenodd" clip-rule="evenodd" d="M0.987305 126.372V70.7047C0.987305 70.7047 19.4494 70.5122 25.5992 70.7047C30.2102 70.8488 36.7223 71.4012 42.0462 79.0717C47.6759 87.183 50.8448 106.513 40.6959 119.717C36.0555 125.754 29.1524 126.253 24.8598 126.372C18.894 126.536 0.987305 126.372 0.987305 126.372ZM8.52832 120.299V77.624H25.0067C29.2133 77.624 34.8277 80.4938 38.1048 88.1871C40.4758 93.7531 40.1798 105.845 38.0193 111.036C35.3544 117.438 28.1773 120.299 24.3729 120.299H8.52832Z" fill="white"/>
<path fill-rule="evenodd" clip-rule="evenodd" d="M52.7461 126.559H60.2458V70.5049H52.7461V126.559Z" fill="white"/>
<path fill-rule="evenodd" clip-rule="evenodd" d="M164.715 128.168V81.0572L180.912 128.168H187.601L203.728 81.691V128.168H210.911V72.3955H200.523L184.626 120.105L168.799 72.3955H157.673V128.168H164.715Z" fill="white"/>
<path fill-rule="evenodd" clip-rule="evenodd" d="M96.6267 17.1827C96.6267 26.6723 90.2265 34.3652 82.3315 34.3652C74.4365 34.3652 68.0361 26.6723 68.0361 17.1827C68.0361 7.69285 74.4365 0 82.3315 0C90.2265 0 96.6267 7.69285 96.6267 17.1827Z" fill="white"/>
<path fill-rule="evenodd" clip-rule="evenodd" d="M79.2333 126.445C79.2333 126.445 80.8093 93.2247 69.4012 69.986C66.3371 63.7439 54.3329 53.0531 45.7768 49.3032C39.7559 50.201 21.612 55.6203 21.612 55.6203L19.9219 50.6029C19.9219 50.6029 46.4351 40.4604 82.5079 40.4619C110.13 40.4604 140.446 51.0254 140.446 51.0254L138.545 56.0428C138.545 56.0428 122.278 50.9197 117.524 50.1271C100.623 57.5745 94.2523 70.405 90.9055 79.6512C84.6733 96.8689 85.5183 126.445 85.5183 126.445H79.2333ZM55.0957 47.384C55.0957 47.384 65.1864 52.7933 72.9117 65.0594C80.9399 77.8056 82.4715 90.8332 82.4715 90.8332C82.4715 90.8332 83.6862 79.5662 91.9254 64.9187C98.5863 53.0769 109.143 47.9477 109.143 47.9477C109.143 47.9477 90.5873 45.4121 82.1195 45.4121C68.7571 45.4121 55.0957 47.384 55.0957 47.384Z" fill="white"/>
</svg>
